<?xml version="1.0" encoding="UTF-8" standalone="no"?>
<svg
        xmlns:dc="http://purl.org/dc/elements/1.1/"
        xmlns:cc="http://creativecommons.org/ns#"
        xmlns:rdf="http://www.w3.org/1999/02/22-rdf-syntax-ns#"
        xmlns="http://www.w3.org/2000/svg"
        xmlns:sodipodi="http://sodipodi.sourceforge.net/DTD/sodipodi-0.dtd"
        xmlns:inkscape="http://www.inkscape.org/namespaces/inkscape"
        width="20pt"
        height="20pt"
        viewBox="0 0 7.0555558 7.0555555"
        version="1.1"
        id="svg1035"
        inkscape:version="1.0.1 (3bc2e813f5, 2020-09-07)"
        sodipodi:docname="icon_spawn.svg">
  <defs
     id="defs1029" />
  <sodipodi:namedview
     id="base"
     pagecolor="#ffffff"
     bordercolor="#666666"
     borderopacity="1.0"
     inkscape:pageopacity="0.0"
     inkscape:pageshadow="2"
     inkscape:zoom="11.2"
     inkscape:cx="5.4724121"
     inkscape:cy="28.145399"
     inkscape:document-units="mm"
     inkscape:current-layer="layer1"
     inkscape:document-rotation="0"
     showgrid="false"
     units="pt"
     inkscape:window-width="1920"
     inkscape:window-height="1001"
     inkscape:window-x="-9"
     inkscape:window-y="-9"
     inkscape:window-maximized="1" />
  <metadata
     id="metadata1032">
    <rdf:RDF>
      <cc:Work
         rdf:about="">
        <dc:format>image/svg+xml</dc:format>
        <dc:type
           rdf:resource="http://purl.org/dc/dcmitype/StillImage" />
        <dc:title />
      </cc:Work>
    </rdf:RDF>
  </metadata>
  <g
     inkscape:label="Ebene 1"
     inkscape:groupmode="layer"
     id="layer1">
    <path
       id="rect885"
       d="M 13.144531 1.6621094 C 12.684078 1.6692542 12.226255 1.8545924 11.878906 2.2128906 L 9.8691406 4.2851562 A 3.9955358 3.9062502 0 0 0 7.1210938 3.2148438 A 3.9955358 3.9062502 0 0 0 7.0976562 3.2148438 A 3.9955358 3.9062502 0 0 0 3.125 7.1210938 A 3.9955358 3.9062502 0 0 0 4.3730469 9.9550781 L 2.2167969 12.179688 C 1.5220996 12.896283 1.5392629 14.031866 2.2558594 14.726562 L 12.224609 24.388672 C 12.941206 25.083369 14.076787 25.066206 14.771484 24.349609 L 17.265625 21.777344 A 3.9955359 3.9062502 0.49276803 0 0 19.882812 22.761719 A 3.9955359 3.9062502 0.49276803 0 0 19.90625 22.763672 A 3.9955359 3.9062502 0.49276803 0 0 23.914062 18.890625 A 3.9955359 3.9062502 0.49276803 0 0 22.757812 16.113281 L 24.433594 14.382812 C 25.128291 13.666217 25.111128 12.530634 24.394531 11.835938 L 14.427734 2.171875 C 14.069436 1.8245262 13.604985 1.6549645 13.144531 1.6621094 z M 12.990234 6.0722656 A 7.1205353 7.03125 0 0 1 12.992188 6.0722656 A 7.1205353 7.03125 0 0 1 13.146484 6.0722656 A 7.1205353 7.03125 0 0 1 20.267578 13.103516 A 7.1205353 7.03125 0 0 1 13.146484 20.134766 A 7.1205353 7.03125 0 0 1 6.0273438 13.103516 A 7.1205353 7.03125 0 0 1 12.990234 6.0722656 z "
       transform="scale(0.26458333)"
       style="fill-rule:nonzero" />
    <rect
       id="rect892"
       width="2.9411273"
       height="0.82682288"
       x="1.9446423"
       y="-3.9018517"
       ry="0.30909681"
       transform="rotate(90.362712)"
       style="fill-rule:nonzero" />
  </g>
</svg>
