<?xml version="1.0" encoding="UTF-8" standalone="no"?>
<svg
        xmlns:dc="http://purl.org/dc/elements/1.1/"
        xmlns:cc="http://creativecommons.org/ns#"
        xmlns:rdf="http://www.w3.org/1999/02/22-rdf-syntax-ns#"
        xmlns="http://www.w3.org/2000/svg"
        xmlns:sodipodi="http://sodipodi.sourceforge.net/DTD/sodipodi-0.dtd"
        xmlns:inkscape="http://www.inkscape.org/namespaces/inkscape"
        width="20pt"
        height="20pt"
        viewBox="0 0 7.0555558 7.0555555"
        version="1.1"
        id="svg1035"
        inkscape:version="1.0.1 (3bc2e813f5, 2020-09-07)"
        sodipodi:docname="profile.svg">
  <defs
     id="defs1029" />
  <sodipodi:namedview
     id="base"
     pagecolor="#ffffff"
     bordercolor="#666666"
     borderopacity="1.0"
     inkscape:pageopacity="0.0"
     inkscape:pageshadow="2"
     inkscape:zoom="7.919596"
     inkscape:cx="-26.222365"
     inkscape:cy="30.03149"
     inkscape:document-units="mm"
     inkscape:current-layer="layer1"
     inkscape:document-rotation="0"
     showgrid="false"
     units="pt"
     inkscape:window-width="1920"
     inkscape:window-height="1001"
     inkscape:window-x="-9"
     inkscape:window-y="-9"
     inkscape:window-maximized="1" />
  <metadata
     id="metadata1032">
    <rdf:RDF>
      <cc:Work
         rdf:about="">
        <dc:format>image/svg+xml</dc:format>
        <dc:type
           rdf:resource="http://purl.org/dc/dcmitype/StillImage" />
        <dc:title />
      </cc:Work>
    </rdf:RDF>
  </metadata>
  <g
     inkscape:label="Ebene 1"
     inkscape:groupmode="layer"
     id="layer1">
    <path
       style="fill:#000000;stroke-width:0.5;stroke-miterlimit:4;stroke-dasharray:none;fill-opacity:1;stroke:#000000;stroke-opacity:1;stroke-linejoin:round;stroke-linecap:round"
       d="m 4.3,3.6737281 c 0,0 0.7424261,0.5215154 0.9,0.8265438 C 5.4715865,5.0260036 5.5,6 5.5,6 h -4 C 1.5,6 1.53978,5.0304782 1.8,4.5002719 1.950655,4.1933077 2.7,3.6973516 2.7,3.6973516 c 0,0 0.4887545,0.2051055 0.8,0.201258 0.312835,-0.00387 0.8,-0.2248815 0.8,-0.2248815 z"
       id="path6448"
       sodipodi:nodetypes="csccscsc" />
    <path
       style="fill:#000000;stroke-width:0.5;stroke-miterlimit:4;stroke-dasharray:none;fill-opacity:1;stroke:#000000;stroke-opacity:1;stroke-linejoin:round;stroke-linecap:round"
       d="m 2.6,2.765 c 0.3518596,0.3717227 1.4423552,0.3661601 1.8,0 C 4.7550642,2.4014819 4.7493209,1.3690406 4.4,1 4.0751614,0.6568237 2.9301795,0.6619591 2.6,1 2.2392263,1.3693635 2.245062,2.3900252 2.6,2.765 Z"
       id="path6450"
       sodipodi:nodetypes="sssss" />
  </g>
</svg>
